<svg width="20" height="20" viewBox="0 0 20 20" version="1.1" xmlns="http://www.w3.org/2000/svg" xmlns:xlink="http://www.w3.org/1999/xlink">
<title>Group</title>
<desc>Created using Figma</desc>
<g id="Canvas" transform="translate(-12903 -30)">
<g id="Group">
<g id="Vector">
<use xlink:href="#path0_fill" transform="translate(12903 30)" fill="#E5E5E5"/>
</g>
<g id="Vector">
<use xlink:href="#path1_fill" transform="translate(12917.7 42.5)" fill="#E5E5E5"/>
</g>
</g>
</g>
<defs>
<path id="path0_fill" d="M 17.9841 11.8841L 17.9841 3.33332C 17.9841 2.41414 17.2505 1.66664 16.3492 1.66664L 13.8968 1.66664L 13.8968 0.416641C 13.8968 0.186367 13.714 0 13.4881 0C 13.2622 0 13.0793 0.186367 13.0793 0.41668L 13.0793 1.66668L 5.72221 1.66668L 5.72221 0.41668C 5.72221 0.186367 5.53943 0 5.3135 0C 5.08758 0 4.90476 0.186367 4.90476 0.41668L 4.90476 1.66668L 1.63493 1.66668C 0.733645 1.66668 0 2.41414 0 3.33332L 0 16.6666C 0 17.5858 0.733645 18.3333 1.63493 18.3333L 11.6576 18.3333C 12.4831 19.3506 13.7301 20 15.123 20C 17.6017 20 19.619 17.9439 19.619 15.4167C 19.619 13.9966 18.982 12.7254 17.9841 11.8841ZM 0.817447 3.33332C 0.817447 2.87395 1.18389 2.5 1.63493 2.5L 4.90476 2.5L 4.90476 3.33332C 4.45371 3.33332 4.08731 3.70727 4.08731 4.16664C 4.08731 4.62602 4.45375 4.99996 4.90476 4.99996C 5.35577 4.99996 5.72221 4.62602 5.72221 4.16664L 5.72221 2.5L 13.0793 2.5L 13.0793 3.33332C 12.6283 3.33332 12.2619 3.70727 12.2619 4.16664C 12.2619 4.62602 12.6283 4.99996 13.0793 4.99996C 13.5304 4.99996 13.8968 4.62602 13.8968 4.16664L 13.8968 2.5L 16.3492 2.5C 16.8003 2.5 17.1667 2.87395 17.1667 3.33332L 17.1667 5.83332L 0.817447 5.83332L 0.817447 3.33332ZM 1.63493 17.5C 1.18389 17.5 0.817486 17.1261 0.817486 16.6667L 0.817486 6.66668L 17.1667 6.66668L 17.1667 11.3394C 16.5527 11.0182 15.8592 10.8334 15.123 10.8334C 12.6443 10.8334 10.627 12.8894 10.627 15.4167C 10.627 16.1671 10.8084 16.8741 11.1234 17.5L 1.63493 17.5ZM 15.123 19.1667C 13.0945 19.1667 11.4445 17.4845 11.4445 15.4167C 11.4445 13.3488 13.0946 11.6667 15.123 11.6667C 17.1515 11.6667 18.8016 13.3488 18.8016 15.4167C 18.8016 17.4845 17.1515 19.1667 15.123 19.1667Z"/>
<path id="path1_fill" d="M 0.817448 2.74414L 0.817448 0.416679C 0.817448 0.186367 0.634629 -2.22045e-15 0.408704 -2.22045e-15C 0.182778 -2.22045e-15 0 0.186367 0 0.416679L 0 2.91668C 0 3.02734 0.0431082 3.13316 0.119745 3.21129L 1.34594 4.46129C 1.42575 4.54266 1.53036 4.58336 1.63493 4.58336C 1.7395 4.58336 1.84408 4.54266 1.92393 4.46129C 2.0836 4.29852 2.0836 4.03484 1.92393 3.87211L 0.817448 2.74414Z"/>
</defs>
</svg>
