<svg width="40" height="40" viewBox="0 0 40 40" version="1.1" xmlns="http://www.w3.org/2000/svg" xmlns:xlink="http://www.w3.org/1999/xlink">
<title>Group</title>
<desc>Created using Figma</desc>
<g id="Canvas" transform="translate(-25 41)">
<g id="Group">
<g id="Ellipse">
<use xlink:href="#path0_fill" transform="translate(25 -41)" fill="#B19261"/>
</g>
<g id="Vector">
<use xlink:href="#path1_fill" transform="translate(36 -30)" fill="#FFFFFF"/>
</g>
</g>
</g>
<defs>
<path id="path0_fill" d="M 40 20C 40 31.0457 31.0457 40 20 40C 8.95431 40 0 31.0457 0 20C 0 8.95431 8.95431 0 20 0C 31.0457 0 40 8.95431 40 20Z"/>
<path id="path1_fill" d="M 17.2501 9C 16.8376 9 16.5001 9.33599 16.5001 9.74999L 16.5001 15.4395L 2.56052 1.49998L 8.25003 1.49998C 8.66404 1.49998 9.00002 1.16399 9.00002 0.749988C 9.00002 0.335987 8.66404 0 8.25003 0L 0.74999 0L 0.463511 0.0585228L 0.224983 0.216015L 0.218989 0.218988L 0.214505 0.228003L 0.0585229 0.46351L 0 0.749988L 0 8.24996C 0 8.66397 0.335988 8.99995 0.74999 8.99995C 1.16399 8.99995 1.49998 8.66397 1.49998 8.24996L 1.49998 2.56051L 15.4395 16.5L 9.75001 16.5C 9.33752 16.5 9.00002 16.8375 9.00002 17.25C 9.00002 17.6625 9.33752 18 9.75001 18L 17.25 18L 17.5365 17.9415C 17.718 17.865 17.8665 17.7195 17.9415 17.5365L 18 17.253L 18 9.74999C 18 9.33599 17.6625 9 17.2501 9Z"/>
</defs>
</svg>
